<svg height='100px' width='100px'  fill="#000000" xmlns="http://www.w3.org/2000/svg" xmlns:xlink="http://www.w3.org/1999/xlink" version="1.1" x="0px" y="0px" viewBox="0 0 100 100" enable-background="new 0 0 100 100" xml:space="preserve"><text transform="matrix(1 0 0 1 41.9435 181.2993)" fill="#000000" font-family="'CenturyGothic'" font-size="5.6221">CENTRO COMERCIAL</text><text transform="matrix(1 0 0 1 98.0334 256.7407)" fill="#000000" font-family="'CenturyGothic'" font-size="5.6221">BASURERO</text><text transform="matrix(1 0 0 1 172.72 256.7407)" fill="#000000" font-family="'CenturyGothic'" font-size="5.6221">POLICÍA</text><text transform="matrix(1 0 0 1 50.2043 318.7909)" fill="#000000" font-family="'CenturyGothic'" font-size="5.6221">SOUVENIRS</text><text transform="matrix(1 0 0 1 -283.5974 303.1348)" fill="#000000" font-family="'CenturyGothic'" font-size="5.6221">RESTAURANTE</text><text transform="matrix(1 0 0 1 -260.2137 419.1729)" fill="#000000" font-family="'CenturyGothic'" font-size="5.6221">ESTACIONAMIENTO</text><text transform="matrix(1 0 0 1 -160.4862 418.7256)" fill="#000000" font-family="'CenturyGothic'" font-size="5.6221">MOTOTAXI</text><text transform="matrix(1 0 0 1 -70.3855 418.7256)" fill="#000000" font-family="'CenturyGothic'" font-size="5.6221">AUTOBÚS</text><text transform="matrix(1 0 0 1 2.563477e-002 418.7256)" fill="#000000" font-family="'CenturyGothic'" font-size="5.6221">PLAZA MUNICIPAL </text><text transform="matrix(1 0 0 1 35.2581 342.7524)" fill="#000000" font-family="'CenturyGothic'" font-size="5.6221">CUERO</text><text transform="matrix(1 0 0 1 111.1837 342.7524)" fill="#000000" font-family="'CenturyGothic'" font-size="5.6221">BANCO</text><text transform="matrix(1 0 0 1 194.7208 342.4546)" fill="#000000" font-family="'CenturyGothic'" font-size="5.6221">PABELLONES </text><g><path fill="#000000" d="M-200.1,378.4l-14.1-3.1l-9.1-12.1c-0.2-0.3-0.6-0.5-1-0.5h-24c-0.5,0-0.9,0.3-1.1,0.7l-6.2,11.6h-11.3   c-0.7,0-1.3,0.6-1.3,1.3v16c0,0.7,0.6,1.3,1.3,1.3h15.1c-0.4,0.5-0.7,1-0.9,1.5c-0.9,2-1,4.2-0.2,6.2c0.6,1.7,1.9,3,3.5,3.7   c0.9,0.4,1.8,0.6,2.8,0.6c0.8,0,1.6-0.1,2.4-0.4c1.4-0.5,2.5-1.6,3.1-2.9c0.6-1.4,0.7-2.9,0.1-4.3c-0.7-1.8-2.5-3.1-4.5-3.1   c-0.6,0-1.1,0.1-1.7,0.3c-0.3,0.1-0.6,0.4-0.7,0.7c-0.1,0.3-0.2,0.7,0,1c0.2,0.5,0.7,0.8,1.2,0.8c0.2,0,0.3,0,0.5-0.1   c0.2-0.1,0.5-0.1,0.8-0.1c0.9,0,1.7,0.6,2.1,1.4c0.3,0.8,0.3,1.6-0.1,2.3c-0.3,0.7-0.9,1.3-1.7,1.6c-1,0.4-2.2,0.3-3.2-0.1   c-1-0.5-1.8-1.3-2.2-2.3c-0.5-1.4-0.5-2.9,0.1-4.2c0.5-1.1,1.4-2,2.5-2.6h23c-0.4,0.5-0.7,1-0.9,1.5c-0.9,2-1,4.2-0.2,6.2   c0.6,1.7,1.9,3,3.5,3.7c0.9,0.4,1.8,0.6,2.8,0.6c0.8,0,1.6-0.1,2.4-0.4c1.4-0.5,2.5-1.6,3.1-2.9c0.6-1.4,0.7-2.9,0.1-4.3   c-0.7-1.8-2.5-3.1-4.5-3.1c-0.6,0-1.1,0.1-1.7,0.3c-0.3,0.1-0.6,0.4-0.7,0.7c-0.1,0.3-0.2,0.7,0,1c0.2,0.5,0.7,0.8,1.2,0.8   c0.2,0,0.3,0,0.5-0.1c0.2-0.1,0.5-0.1,0.8-0.1c0.9,0,1.7,0.6,2.1,1.4c0.3,0.8,0.3,1.6-0.1,2.3c-0.3,0.7-0.9,1.3-1.7,1.6   c-1,0.4-2.2,0.3-3.2-0.1c-1-0.5-1.8-1.3-2.2-2.3c-0.5-1.4-0.5-2.9,0.1-4.2c0.5-1.1,1.4-2,2.5-2.6h20.5c0.7,0,1.3-0.6,1.3-1.3v-12.6   C-199.2,379-199.6,378.5-200.1,378.4z M-201.7,391h-63.9v-13.5h10.8c0.5,0,0.9-0.3,1.1-0.7l6.2-11.6h22.6l9,11.9   c0.2,0.2,0.4,0.4,0.7,0.5l13.5,3V391z"></path><path fill="#000000" d="M-225.7,367.7c-0.2-0.4-0.6-0.6-1.1-0.6h-18.1c-0.5,0-0.9,0.3-1.1,0.7l-3.8,7.8c-0.2,0.4-0.2,0.8,0.1,1.2   c0.2,0.4,0.6,0.6,1.1,0.6h26.8c0.5,0,0.9-0.3,1.1-0.7c0.2-0.4,0.2-0.9,0-1.3L-225.7,367.7z M-237,375h-9.6l2.5-5.3h7.1V375z    M-234.5,375v-5.3h7.1l3.4,5.3H-234.5z"></path></g><g><path fill="#000000" d="M-145.7,368.1c-0.1,0-0.2,0-0.3,0l-23.1,0c-0.3,0-0.7,0.1-0.9,0.4c-0.2,0.2-0.4,0.6-0.4,0.9v12.6   c0,0.7,0.6,1.3,1.3,1.3l9.2,0l0,4.9c0,0.3,0.1,0.7,0.4,0.9c0.2,0.2,0.6,0.4,0.9,0.4h22.3c0,0,0,0,0,0c0.7,0,1.3-0.6,1.3-1.3   c0,0,0-0.1,0-0.1C-135.1,370.6-145.3,368.2-145.7,368.1z M-144.1,386.8h-5.3v-4.1h5.3V386.8z M-141.6,386.8v-5.4   c0-0.7-0.6-1.3-1.3-1.3h-7.8c-0.7,0-1.3,0.6-1.3,1.3v5.4h-5.3l0-4.9c0-0.7-0.6-1.3-1.3-1.3l-9.2,0v-10l21.7,0   c1,0.3,8.1,2.7,8.5,16.2H-141.6z"></path><path fill="#000000" d="M-111.9,389.4l-1.6-8.5c-0.1-0.5-0.4-0.9-0.9-1.1c-0.5-0.2-1-0.1-1.4,0.1l-5.1,3.4   c-3.9-8.1-10.8-18.6-21-21.1c-0.3-0.1-0.6-0.1-0.8-0.1h-30.1c0,0-0.1,0-0.1,0c-0.1,0-0.3,0-0.5,0c-0.9,0-1.7,0.3-2.2,0.9   c-0.7,0.7-1,1.8-1,3.1v25.5c0,0,0,0,0,0c0,1.6,1.3,4,4.6,4.1c0,0,0,0,0,0h3.5c-0.2,0.3-0.3,0.5-0.5,0.8c-0.8,1.8-0.9,3.7-0.2,5.5   c0.6,1.5,1.7,2.7,3.1,3.4c0.8,0.4,1.6,0.5,2.5,0.5c0.7,0,1.4-0.1,2.1-0.4c1.3-0.5,2.3-1.4,2.8-2.6c0.6-1.2,0.6-2.6,0.1-3.9   c-0.6-1.7-2.2-2.8-4-2.8c-0.5,0-1,0.1-1.5,0.3c-0.3,0.1-0.5,0.3-0.7,0.6c-0.1,0.3-0.1,0.6,0,0.9c0.2,0.5,0.6,0.8,1.1,0.8   c0.1,0,0.3,0,0.4-0.1c0.2-0.1,0.4-0.1,0.7-0.1c0.8,0,1.5,0.5,1.8,1.3c0.3,0.7,0.2,1.4-0.1,2.1c-0.3,0.7-0.8,1.2-1.5,1.4   c-0.9,0.3-1.9,0.3-2.8-0.1c-0.9-0.4-1.6-1.1-1.9-2.1c-0.5-1.2-0.4-2.6,0.1-3.8c0.3-0.7,0.8-1.3,1.4-1.8h31.6   c-0.2,0.3-0.3,0.5-0.5,0.8c-0.8,1.8-0.9,3.7-0.2,5.5c0.6,1.5,1.7,2.7,3.1,3.4c0.8,0.4,1.6,0.5,2.5,0.5c0.7,0,1.4-0.1,2.1-0.4   c1.3-0.5,2.3-1.4,2.8-2.6c0.6-1.2,0.6-2.6,0.1-3.9c-0.6-1.7-2.2-2.8-4-2.8c-0.5,0-1,0.1-1.5,0.3c-0.3,0.1-0.5,0.3-0.7,0.6   c-0.1,0.3-0.1,0.6,0,0.9c0.2,0.5,0.6,0.8,1.1,0.8c0.1,0,0.3,0,0.4-0.1c0.2-0.1,0.4-0.1,0.7-0.1c0.8,0,1.5,0.5,1.8,1.3   c0.3,0.7,0.2,1.4-0.1,2.1c-0.3,0.7-0.8,1.2-1.5,1.4c-0.9,0.3-1.9,0.3-2.8-0.1c-0.9-0.4-1.6-1.1-1.9-2.1c-0.5-1.2-0.4-2.6,0.1-3.8   c0.3-0.7,0.8-1.3,1.4-1.8h12.7c0.5,0,1-0.3,1.3-0.8c0.3-0.5,0.3-1,0-1.5l-0.2-0.3c0,0,0-0.1,0-0.1c-0.1-0.4-0.4-1.4-0.9-2.7   l4.3,0.8c0.1,0,0.2,0,0.3,0c0.4,0,0.8-0.2,1.1-0.4C-111.9,390.4-111.8,389.9-111.9,389.4z M-171.9,392.7c-1.3,0-1.6-0.7-1.7-1.2   v-25.5c0,0,0,0,0-0.1c0-0.6,0.1-0.9,0.1-1c0,0,0,0,0.1,0c0,0,0,0,0.1,0c0.2,0,0.3,0,0.5,0h30.1c0,0,0.1,0,0.1,0   c13.3,3.3,20.6,22.2,22.4,27.6H-171.9z M-119.2,387.1c-0.1-0.3-0.3-0.7-0.4-1l3.6-2.4l0.8,4.1L-119.2,387.1z"></path></g><g><path fill="#000000" d="M-70.9,377.2h4.3c1.1,0,2-0.9,2-2v-4.4c0-1.1-0.9-2-2-2h-4.3c-1.1,0-2,0.9-2,2v4.4   C-72.9,376.3-72,377.2-70.9,377.2z M-70.6,371.1h3.7v3.8h-3.7V371.1z"></path><path fill="#000000" d="M-60.8,377.2h4.3c1.1,0,2-0.9,2-2v-4.4c0-1.1-0.9-2-2-2h-4.3c-1.1,0-2,0.9-2,2v4.4   C-62.9,376.3-61.9,377.2-60.8,377.2z M-60.5,371.1h3.7v3.8h-3.7V371.1z"></path><path fill="#000000" d="M-81.2,377.2h4.3c1.1,0,2-0.9,2-2v-4.4c0-1.1-0.9-2-2-2h-4.3c-1.1,0-2,0.9-2,2v4.4   C-83.2,376.3-82.3,377.2-81.2,377.2z M-80.9,371.1h3.7v3.8h-3.7V371.1z"></path><path fill="#000000" d="M-27.8,374.9h-7v-9.3c0-2.1-1.7-3.8-3.8-3.8h-45.8c-2.1,0-3.8,1.7-3.8,3.8v25.7c0,2.1,1.7,3.8,3.8,3.8h4.1   c-0.2,0.3-0.4,0.6-0.5,0.9c-0.8,1.7-0.8,3.6-0.2,5.4c0.5,1.5,1.6,2.6,3.1,3.3c0.8,0.3,1.6,0.5,2.4,0.5c0.7,0,1.4-0.1,2.1-0.4   c1.2-0.5,2.2-1.4,2.7-2.6c0.5-1.2,0.6-2.5,0.1-3.8c-0.6-1.6-2.2-2.7-3.9-2.7c-0.5,0-1,0.1-1.5,0.3c-0.3,0.1-0.5,0.3-0.6,0.6   c-0.1,0.3-0.1,0.6,0,0.9c0.2,0.4,0.6,0.7,1.1,0.7c0.1,0,0.3,0,0.4-0.1c0.2-0.1,0.4-0.1,0.7-0.1c0.8,0,1.5,0.5,1.8,1.2   c0.2,0.7,0.2,1.4-0.1,2c-0.3,0.6-0.8,1.1-1.5,1.4c-0.9,0.3-1.9,0.3-2.7-0.1c-0.9-0.4-1.5-1.1-1.9-2c-0.4-1.2-0.4-2.5,0.1-3.6   c0.3-0.7,0.9-1.4,1.5-1.9h35.1c-0.2,0.3-0.4,0.6-0.5,0.9c-0.8,1.7-0.8,3.6-0.2,5.4c0.6,1.5,1.6,2.6,3.1,3.3   c0.8,0.3,1.6,0.5,2.4,0.5c0.7,0,1.4-0.1,2.1-0.4c1.2-0.5,2.2-1.4,2.7-2.6c0.5-1.2,0.6-2.5,0.1-3.8c-0.6-1.6-2.2-2.7-3.9-2.7   c-0.5,0-1,0.1-1.5,0.3c-0.3,0.1-0.5,0.3-0.6,0.6c-0.1,0.3-0.1,0.6,0,0.9c0.2,0.4,0.6,0.7,1.1,0.7c0.1,0,0.3,0,0.4-0.1   c0.2-0.1,0.4-0.1,0.7-0.1c0.8,0,1.5,0.5,1.8,1.2c0.2,0.7,0.2,1.4-0.1,2c-0.3,0.6-0.8,1.1-1.5,1.4c-0.9,0.3-1.9,0.3-2.7-0.1   c-0.9-0.4-1.5-1.1-1.9-2c-0.4-1.2-0.4-2.5,0.1-3.6c0.3-0.7,0.9-1.4,1.5-1.9h0.5c0.2,0,0.4,0,0.6,0h10.2c1.3,0,2.3-1,2.3-2.3v-15.5   C-25.5,375.9-26.6,374.9-27.8,374.9z M-85.3,387h32.7v1.6h-32.7V387z M-50.2,388.4v-19.2h7.4v19.2H-50.2z M-40.6,386.7   C-40.6,386.7-40.5,386.7-40.6,386.7l12.1,0v1.9h-12.1V386.7z M-84.4,364.8h45.8c0.5,0,0.9,0.4,0.9,0.9v10.7c0,0.8,0.6,1.4,1.4,1.4   h7.9v6.6h-12.1c0,0,0,0,0,0v-15.5c0-1.1-0.9-2-2-2h-7.9c-1.1,0-2,0.9-2,2v15.7h-32.7v-19C-85.3,365.2-84.9,364.8-84.4,364.8z    M-38.1,392.1c-0.1,0-0.2,0-0.3,0c-0.1,0-0.1,0-0.2,0h-45.8c-0.5,0-0.9-0.4-0.9-0.9v-0.3h56.9v1.2H-38.1z"></path></g><path fill="#000000" d="M45.6,404.1h-3.7V389c0-0.1,0-0.2,0-0.3V388c0.1-0.9,1-1.6,1.9-1.5c0.7,0.1,1.2,0.7,1.1,1.3  c0,0.2-0.1,0.4-0.3,0.6c-0.2,0.1-0.4,0.2-0.6,0.2c0,0-0.1,0-0.1-0.1c0.3-0.3,0.3-0.7,0.1-1c-0.2-0.4-0.8-0.5-1.2-0.3  c-0.5,0.3-0.8,1-0.6,1.6c0.2,0.8,0.9,1.4,1.6,1.4c0.7,0.1,1.3-0.1,1.8-0.6c0.5-0.4,0.8-1,0.9-1.7c0.1-0.8-0.2-1.5-0.6-2.1  c-0.5-0.6-1.2-1-2-1.1c-1.8-0.2-3.5,1.1-3.7,2.9H19.4c-0.1-0.8-0.6-1.6-1.2-2.1c-0.7-0.6-1.6-0.9-2.5-0.8c-0.8,0.1-1.5,0.5-2,1.1  s-0.7,1.4-0.6,2.1c0.1,0.7,0.4,1.3,0.9,1.7c0.5,0.4,1.2,0.6,1.8,0.6c0.7-0.1,1.4-0.7,1.6-1.4c0.2-0.7-0.1-1.3-0.6-1.6  c-0.4-0.2-0.9-0.1-1.2,0.3c-0.2,0.3-0.2,0.8,0.1,1c0,0-0.1,0.1-0.1,0.1c-0.4,0-0.8-0.3-0.9-0.7c0-0.3,0.1-0.6,0.3-0.9  c0.2-0.3,0.5-0.4,0.8-0.4c0.5,0,0.9,0.1,1.3,0.4c0.4,0.3,0.6,0.7,0.6,1.1v0.7c0,0,0,0.1,0,0.2v15.1H9v-22.9c0-0.1,0-0.1,0-0.1  c0-0.5-0.3-1.1-0.8-1.2c-4.5-1.5-6.9-6.4-5.4-10.8c1.2-3.4,4.9-5.3,8.4-4.1c2.6,0.9,4,3.7,3.2,6.4c-0.7,2-2.8,3-4.8,2.4  c-1.5-0.5-2.2-2.1-1.8-3.5c0.2-0.5,0.5-0.9,1-1.1c0.5-0.2,1-0.3,1.5-0.1c0.6,0.2,1.3-0.1,1.5-0.8c0.2-0.6-0.1-1.3-0.8-1.5  c-1.1-0.4-2.3-0.3-3.4,0.2c-1.1,0.5-1.8,1.4-2.2,2.5c-0.9,2.7,0.5,5.7,3.3,6.6c3.2,1.1,6.8-0.7,7.8-3.9c1.3-3.9-0.8-8.1-4.7-9.4  c-4.7-1.6-9.8,1-11.4,5.7c-1.8,5.4,0.9,11.3,6.1,13.6v22.3H3.1c-0.6,0-1,0.4-1,1c0,0.6,0.4,1,1,1h42.5c0.6,0,1-0.4,1-1  C46.6,404.6,46.2,404.1,45.6,404.1z M37.2,390.2h2.3v4.6h-2.3V390.2z M32.8,390.2h2.5v4.6h-2.5V390.2z M28.5,390.2h2.4v4.6h-2.4  V390.2z M24.3,390.2h2.3v4.6h-2.3V390.2z M20.1,390.2h2.2v4.6h-2.2V390.2z M20.1,397.2h19.5v0.6H20.1V397.2z M20.1,400.2h19.5v3.9  H20.1V400.2z"></path><g><path d="M80,74.6h-1.8V54.9c0-1.7-1.4-3-3-3h-14c-1.7,0-3,1.4-3,3v19.6h-1.9c-1.1,0-2.1,0.9-2.1,2.1c0,1.1,0.9,2.1,2.1,2.1H80   c1.1,0,2.1-0.9,2.1-2.1C82.1,75.5,81.2,74.6,80,74.6z M74.1,67.2h-3.7v-4.1h3.7V67.2z M66.3,67.2h-4v-4.1h4V67.2z M62.3,71.4h4v2.8   h-4V71.4z M70.4,71.4h3.7v2.8h-3.7V71.4z M74.1,59h-3.7v-3h3.7V59z M66.3,56v3h-4v-3H66.3z"></path><path d="M93,30.1c0-0.9-0.5-1.8-1.3-2.2l-2.4-1.4c-0.6-0.4-1.1-0.7-1.7-1L76.5,19c-5.2-3.5-10-4.8-14.1-3.8   c-2.1,0.5-3.6,1.5-4.7,2.4c-2.4-2.1-5.1-3.1-7.8-3.1c-3.1,0-5.7,1.5-7.5,2.8c-1.4-1.6-3-2.4-4.4-2.8c-4.4-1.2-9.4,0.9-12.4,2.6   c-0.2,0.1-0.3,0.1-0.5,0.2l-17,10c-1,0.6-1.4,1.7-1.2,2.8c0,0.2-0.1,0.4-0.1,0.6v56.1c0,0.1,0,0.2,0,0.3c0,0.3,0.4,3,2.6,4.8   c0.9,0.7,2.4,1.5,4.6,1.5c0.3,0,0.7,0,1-0.1h70.6c0.8,0.1,2.6,0.2,4.3-1c1.7-1.2,2.7-3.1,3-5.8c0-0.1,0-0.2,0-0.3L93,30.1z    M85.2,30.1l1.3,0.8c0.4,0.3,0.9,0.7,1.3,1.1l0,5.5H12.1v-5.6c1.1-0.9,3.3-2.4,5.8-2.4c0,0,0,0,0.1,0c2,0,3.9,1,5.7,3   c0.5,0.5,1.1,0.8,1.9,0.8c0.7,0,1.4-0.3,1.9-0.8c0,0,3.2-3.1,6.8-3.1c0.1,0,0.1,0,0.2,0c2,0,3.9,1,5.6,3c0.5,0.5,1.1,0.8,1.8,0.8   c0.7,0,1.4-0.2,1.9-0.7c0,0,3.6-3.3,7.3-3.1c1.8,0.1,3.4,1,4.9,2.9c0.5,0.6,1.3,1,2.1,0.9c0.8,0,1.6-0.5,2-1.1c0,0,2.2-3.1,5.4-3.4   c2.2-0.2,4.5,1.1,7,3.7c0.5,0.5,1.2,0.8,1.9,0.8c0.7,0,1.4-0.3,1.9-0.8c0,0,3.1-3.1,6.8-3C83.6,29.6,84.4,29.7,85.2,30.1z    M36.6,19.6c0.8,0.2,1.9,0.8,2.8,2.8c0.3,0.8,1.1,1.4,2,1.6c0.9,0.1,1.8-0.2,2.4-0.9c0,0,2.7-3.3,6.1-3.3c0,0,0,0,0.1,0   c2,0,3.9,1.1,5.8,3.4c0.5,0.6,1.2,0.9,2,0.9c0.1,0,0.2,0,0.3,0c0.8-0.1,1.6-0.6,2-1.3c0-0.1,1.1-1.9,3.6-2.5   c2.2-0.5,4.9,0.1,7.9,1.8c0.1,0.1,0.3,0.2,0.4,0.3l5.4,3.2c-1.2,0.5-2.3,1.2-3.1,1.8c-3-2.6-6.2-3.9-9.4-3.6   c-3.1,0.2-5.6,1.9-7.2,3.3c-1.9-1.6-4.1-2.5-6.5-2.6c-3.8-0.2-7.2,1.6-9.2,3c-2.3-1.9-4.8-2.9-7.6-3c-3.7-0.1-6.9,1.6-8.8,3   c-1.1-0.9-2.3-1.6-3.5-2.1l3-1.8c0.4-0.1,0.7-0.2,1-0.4C27.8,21.8,33.2,18.6,36.6,19.6z M24.9,74.4h15.2v13.2H24.9V74.4z    M40.1,69.2H24.9v-13h15.2V69.2z M87.2,88.1c-0.2,0.2-0.5,0.2-0.6,0.2c-0.2-0.1-0.3-0.1-0.5-0.1H45.3v-33c0-2.3-1.9-4.1-4.1-4.1   H23.8c-2.3,0-4.1,1.9-4.1,4.1v33h-4.6c-0.1,0-0.2,0-0.3,0c-1.6,0.2-2.5-0.3-2.7-1.5v-44h75.8l0.1,43.4   C87.8,87.5,87.4,87.9,87.2,88.1z"></path></g><path fill="#000000" d="M236.9,297.3l-8.2-10.7c-0.3-0.4-0.7-0.6-1.2-0.6h-30.3c-0.4,0-0.8,0.2-1.1,0.5l-9.9,10.8  c-0.2,0.2-0.3,0.4-0.3,0.6c-0.2,0.3-0.2,0.7-0.2,1.1v29.2c0,1.3,1.1,2.4,2.4,2.4h47.2c1.3,0,2.4-1.1,2.4-2.4v-29.2  C237.7,298.4,237.4,297.8,236.9,297.3z M213.1,299.7v28H211v-28H213.1z M190.9,296.7l2.3-2.6h37.4l2,2.6H190.9z M197.9,289h28.9  l2.1,2.7h-33.5L197.9,289z M188.6,299.7H208v28h-4.5c0,0,0,0,0,0v-13.1c0-1.3-1.1-2.4-2.4-2.4H194c-1.3,0-2.4,1.1-2.4,2.4v13.1  c0,0,0,0,0,0h-3V299.7z M194.6,327.1v-11.9h5.9v11.9H194.6z M222.9,327.1v-11.9h5.9v11.9H222.9z M234.7,327.7h-2.9c0,0,0,0,0,0  v-13.1c0-1.3-1.1-2.4-2.4-2.4h-7.1c-1.3,0-2.4,1.1-2.4,2.4v13.1c0,0,0,0,0,0h-3.8v-28h18.6V327.7z"></path><rect x="-69" y="158.3" width="34" height="30.7"></rect></svg>