<svg height='100px' width='100px'  fill="#000000" xmlns="http://www.w3.org/2000/svg" xmlns:xlink="http://www.w3.org/1999/xlink" version="1.1" x="0px" y="0px" viewBox="0 0 160 160" style="enable-background:new 0 0 160 160;" xml:space="preserve"><g><rect x="17.919" y="113.543" width="5" height="29.34"></rect><rect x="29.829" y="113.543" width="5" height="29.34"></rect><rect x="41.749" y="113.543" width="5" height="29.34"></rect><rect x="53.669" y="113.543" width="5" height="29.34"></rect><rect x="65.579" y="113.543" width="5" height="29.34"></rect><rect x="53.718" y="52.906" transform="matrix(0.9978 -0.066 0.066 0.9978 -4.3378 3.858)" width="5.001" height="29.344"></rect><rect x="65.608" y="52.126" transform="matrix(0.9978 -0.066 0.066 0.9978 -4.2589 4.6393)" width="5.001" height="29.344"></rect><rect x="77.498" y="51.346" transform="matrix(0.9978 -0.066 0.066 0.9978 -4.1815 5.4221)" width="5.001" height="29.343"></rect><rect x="89.388" y="50.556" transform="matrix(0.9978 -0.066 0.066 0.9978 -4.1035 6.2049)" width="5.001" height="29.344"></rect><rect x="101.278" y="49.776" transform="matrix(0.9978 -0.066 0.066 0.9978 -4.0261 6.9877)" width="5.001" height="29.344"></rect><rect x="89.419" y="113.543" width="5" height="29.34"></rect><rect x="101.329" y="113.543" width="5" height="29.34"></rect><rect x="113.249" y="113.543" width="5" height="29.34"></rect><rect x="125.169" y="113.543" width="5" height="29.34"></rect><rect x="137.079" y="113.543" width="5" height="29.34"></rect><path d="M39.806,52.956l2.059,31.274h0.001l0.49,7.438c0.122,1.851,1.66,3.27,3.488,3.27c0.078,0,0.155-0.002,0.233-0.008   l71.346-4.697c0.927-0.061,1.791-0.487,2.402-1.186c0.612-0.698,0.922-1.61,0.86-2.537l-3.038-46.148   c-0.128-1.93-1.823-3.413-3.722-3.262l-9.443,0.622l-15.338-9.868c-1.129,1.381-2.575,2.49-4.223,3.228l11.177,7.191l-33.776,2.224   l17.475-11.928c0.144,0.008,0.286,0.022,0.432,0.022c4.415,0,8.007-3.584,8.007-7.988V8.66c0-1.996-1.67-3.601-3.688-3.495   c-1.893,0.099-3.312,1.798-3.312,3.693v10.671c0,1.153-0.934,2.087-2.087,2.087c-0.825,0-1.573-0.486-1.908-1.24   c0,0-0.011-0.023-0.03-0.066c-0.893-1.95-2.844-3.207-4.989-3.207v3.5c0,2.153,0.862,4.106,2.255,5.544L52.506,41.143l-9.927,0.654   c-0.927,0.061-1.791,0.487-2.402,1.186c-0.612,0.698-0.922,1.61-0.86,2.537L39.806,52.956L39.806,52.956z M46.531,48.551   l64.36-4.237l2.578,39.163l-64.36,4.237L47.82,68.133l-1.029-15.637h0L46.531,48.551z"></path><path d="M151.5,101.592H80H8.5c-1.933,0-3.5,1.567-3.5,3.5v7.453v31.342v7.453c0,1.933,1.567,3.5,3.5,3.5H80h71.5   c1.933,0,3.5-1.567,3.5-3.5v-46.248C155,103.16,153.433,101.592,151.5,101.592z M12,143.887v-31.342v-3.953h64.5v39.248H12V143.887   z M148,147.84H83.5v-39.248H148V147.84z"></path></g></svg>