<svg height='100px' width='100px'  fill="#000000" xmlns="http://www.w3.org/2000/svg" xmlns:xlink="http://www.w3.org/1999/xlink" version="1.1" x="0px" y="0px" viewBox="0 0 95 95" enable-background="new 0 0 95 95" xml:space="preserve"><path d="M92.8,29.5c0,0,0-0.1,0-0.1c0,0,0,0,0,0c0,0,0-0.1,0-0.1c0,0,0,0,0,0c0,0,0,0,0,0c0-0.1-0.1-0.1-0.1-0.2c0,0,0,0,0,0  c0,0,0-0.1-0.1-0.1c0,0,0,0,0,0c0,0-0.1-0.1-0.1-0.1c0,0-0.1-0.1-0.1-0.1c0,0,0,0,0,0L67.9,16.8c0,0-0.1,0-0.1,0  c-0.1,0-0.1-0.1-0.2-0.1c-0.1,0-0.2,0-0.2,0c0,0-0.1,0-0.1,0l0,0c0,0,0,0,0,0L2.9,36.9c0,0,0,0,0,0c0,0,0,0,0,0  C2.8,37,2.7,37,2.7,37c0,0,0,0,0,0c0,0-0.1,0-0.1,0.1c0,0,0,0,0,0c0,0-0.1,0.1-0.1,0.1c0,0-0.1,0.1-0.1,0.1c0,0,0,0,0,0c0,0,0,0,0,0  c0,0,0,0.1,0,0.2c0,0.1,0,0.1,0,0.2c0,0,0,0,0,0c0,0,0,0,0,0v27.6c0,0,0,0.1,0,0.1c0,0.1,0,0.1,0,0.2c0,0.1,0.1,0.1,0.1,0.2  c0,0.1,0.1,0.1,0.1,0.2c0,0.1,0.1,0.1,0.2,0.1c0,0,0.1,0.1,0.1,0.1l24.4,11.9c0,0,0,0,0,0c0,0,0,0,0.1,0c0.1,0,0.2,0.1,0.3,0.1  c0,0,0,0,0,0c0.1,0,0.2,0,0.2,0c0,0,0,0,0,0l64.3-20.2c0,0,0,0,0,0c0.1,0,0.1-0.1,0.2-0.1c0.1,0,0.1-0.1,0.1-0.1  c0,0,0.1-0.1,0.1-0.1c0-0.1,0.1-0.1,0.1-0.2c0-0.1,0-0.1,0-0.2c0-0.1,0-0.1,0-0.2c0,0,0,0,0,0V29.5z M67.4,18.7l21.8,10.6L27.6,48.7  L5.8,38L67.4,18.7z M4.1,39.4l22.4,10.9v25.5L4.1,64.9V39.4z M28.5,50.4l62.3-19.6v25.6L28.5,76V50.4z"></path><path d="M37.7,50.4C37.6,50.4,37.6,50.4,37.7,50.4c0-0.1-0.1-0.2-0.1-0.2c0-0.1-0.1-0.1-0.1-0.1c0,0-0.1-0.1-0.1-0.1  c-0.1,0-0.1-0.1-0.2-0.1c0,0-0.1,0-0.2,0c-0.1,0-0.1,0-0.2,0c0,0,0,0,0,0c-0.1,0-0.1,0-0.1,0c0,0-0.1,0-0.1,0l-5.9,1.9  c-0.5,0.2-0.8,0.7-0.6,1.2c0.1,0.4,0.5,0.7,0.9,0.7c0.1,0,0.2,0,0.3,0l4.6-1.5v18l-5.2,1.6c-0.5,0.2-0.8,0.7-0.6,1.2  c0.1,0.4,0.5,0.7,0.9,0.7c0.1,0,0.2,0,0.3,0l5.9-1.9c0,0,0,0,0,0c0.1,0,0.1-0.1,0.2-0.1c0.1,0,0.1-0.1,0.1-0.1c0,0,0.1-0.1,0.1-0.1  c0-0.1,0.1-0.1,0.1-0.2c0-0.1,0-0.1,0-0.2c0-0.1,0-0.1,0-0.2c0,0,0,0,0,0v-20c0-0.1,0-0.1,0-0.1C37.7,50.5,37.7,50.5,37.7,50.4z"></path><path d="M43.2,47.6c-0.5,0-1,0.4-1,1v20c0,0.5,0.4,1,1,1c0.5,0,1-0.4,1-1v-20C44.2,48,43.8,47.6,43.2,47.6z"></path><path d="M49.7,45.6c-0.5,0-1,0.4-1,1v20c0,0.5,0.4,1,1,1s1-0.4,1-1v-20C50.7,46,50.3,45.6,49.7,45.6z"></path><path d="M56.3,43.5c-0.5,0-1,0.4-1,1v20c0,0.5,0.4,1,1,1c0.5,0,1-0.4,1-1v-20C57.2,44,56.8,43.5,56.3,43.5z"></path><path d="M9.3,43.7c-0.5,0-1,0.4-1,1v20.1c0,0.5,0.4,1,1,1c0.5,0,1-0.4,1-1V44.7C10.2,44.2,9.8,43.7,9.3,43.7z"></path><path d="M15.4,46.7c-0.5,0-1,0.4-1,1v20.1c0,0.5,0.4,1,1,1s1-0.4,1-1V47.7C16.3,47.1,15.9,46.7,15.4,46.7z"></path><path d="M21.5,49.5c-0.5,0-1,0.4-1,1v20.3c0,0.5,0.4,1,1,1c0.5,0,1-0.4,1-1V50.4C22.4,49.9,22,49.5,21.5,49.5z"></path><path d="M62.8,41.6c-0.5,0-1,0.4-1,1v19.9c0,0.5,0.4,1,1,1c0.5,0,1-0.4,1-1V42.6C63.7,42.1,63.3,41.6,62.8,41.6z"></path><path d="M69.3,39.4c-0.5,0-1,0.4-1,1v20c0,0.5,0.4,1,1,1c0.5,0,1-0.4,1-1v-20C70.2,39.9,69.8,39.4,69.3,39.4z"></path><path d="M75.8,37.4c-0.5,0-1,0.4-1,1v20c0,0.5,0.4,1,1,1c0.5,0,1-0.4,1-1v-20C76.8,37.8,76.3,37.4,75.8,37.4z"></path><path d="M87.9,53.8l-4.6,1.5V37l5.2-1.6c0.5-0.2,0.8-0.7,0.6-1.2c-0.2-0.5-0.7-0.8-1.2-0.6L82,35.4c0,0,0,0,0,0  c-0.1,0-0.1,0.1-0.2,0.1c0,0-0.1,0.1-0.1,0.1c0,0-0.1,0.1-0.1,0.1c0,0.1-0.1,0.1-0.1,0.2c0,0.1,0,0.1,0,0.2c0,0.1,0,0.1,0,0.2  c0,0,0,0,0,0v20.2c0,0.1,0,0.1,0,0.1c0,0,0,0.1,0,0.1c0,0,0,0,0,0c0,0,0,0.1,0.1,0.1c0,0.1,0.1,0.1,0.1,0.2c0,0,0.1,0.1,0.1,0.1  c0.1,0.1,0.1,0.1,0.2,0.1c0,0,0.1,0,0.1,0c0.1,0,0.2,0.1,0.3,0.1c0.1,0,0.2,0,0.3,0l5.9-1.9c0.5-0.2,0.8-0.7,0.6-1.2  C89,53.9,88.4,53.6,87.9,53.8z"></path></svg>